<svg xmlns="http://www.w3.org/2000/svg" width="853.333" height="853.333" preserveAspectRatio="xMidYMid meet" version="1.0" viewBox="0 0 640 640"><metadata>Created by potrace 1.14, written by Peter Selinger 2001-2017</metadata><g fill="#000" stroke="none"><path d="M3117 6274 c-1 -1 -54 -4 -117 -8 -63 -3 -126 -8 -140 -10 -14 -2 -50 -7 -80 -11 -30 -4 -62 -8 -70 -10 -8 -2 -35 -6 -60 -10 -215 -32 -553 -143 -804 -265 -688 -334 -1259 -960 -1517 -1665 -16 -44 -32 -87 -36 -95 -3 -8 -7 -17 -8 -20 -1 -3 -11 -34 -22 -70 -21 -65 -71 -262 -79 -310 -3 -14 -9 -47 -14 -75 -5 -27 -12 -72 -15 -100 -4 -27 -8 -61 -11 -75 -6 -35 -18 -271 -18 -360 0 -78 11 -279 19 -340 10 -81 15 -116 19 -140 3 -14 10 -53 16 -88 29 -164 86 -358 172 -582 127 -331 368 -697 648 -985 76 -79 112 -112 230 -216 46 -40 265 -201 295 -216 17 -9 32 -19 35 -23 9 -11 211 -124 310 -173 185 -90 497 -197 675 -232 81 -16 195 -36 235 -41 24 -4 56 -8 70 -10 158 -22 591 -21 694 1 11 2 44 7 71 9 46 5 136 21 260 46 27 6 83 20 123 31 40 11 81 22 90 24 29 5 274 96 332 122 133 61 327 159 340 173 3 3 34 23 70 44 36 22 112 73 169 114 611 442 1028 1073 1201 1817 10 44 21 98 24 120 4 22 10 65 16 95 5 30 11 80 14 110 3 30 8 80 12 110 7 70 8 409 1 475 -4 28 -9 79 -13 115 -3 36 -8 74 -10 85 -2 11 -9 49 -14 85 -13 80 -59 288 -70 315 -5 11 -11 34 -15 50 -9 39 -82 242 -100 278 -8 16 -15 33 -15 38 0 17 -109 236 -166 335 -192 328 -428 604 -741 864 -170 140 -459 316 -683 414 -205 90 -499 180 -692 211 -51 8 -104 17 -118 19 -102 17 -245 27 -393 30 -65 1 -119 1 -120 0z" transform="translate(0.000000,640.000000) scale(0.100000,-0.100000)"/></g></svg>